<svg width="88px" height="104px" viewBox="0 0 88 104" version="1.1" xmlns="http://www.w3.org/2000/svg" xmlns:xlink="http://www.w3.org/1999/xlink">
 <g>
  <title>background</title>
  <rect fill="none" id="canvas_background" height="102" width="102" y="-1" x="-1"/>
 </g>
 <g>
  <title>Layer 1</title>
  <path id="svg_1" d="m34.2,79.665c-1.091,0 -1.979,-0.888 -1.979,-1.979l0,-22.563c0,-1.092 0.888,-1.98 1.979,-1.98c1.092,0 1.98,0.889 1.98,1.98l0,22.563c0,1.091 -0.888,1.979 -1.98,1.979z"/>
  <path id="svg_2" d="m46.273,79.665c-1.092,0 -1.98,-0.888 -1.98,-1.979l0,-22.563c0,-1.092 0.888,-1.98 1.98,-1.98c1.091,0 1.979,0.889 1.979,1.98l0,22.563c-0.001,1.091 -0.888,1.979 -1.979,1.979z"/>
  <path id="svg_3" d="m58.342,79.665c-1.09,0 -1.979,-0.888 -1.979,-1.979l0,-22.563c0,-1.092 0.889,-1.98 1.979,-1.98c1.092,0 1.98,0.889 1.98,1.98l0,22.563c0,1.091 -0.888,1.979 -1.98,1.979z"/>
  <path id="svg_4" d="m30.992,89.975c-5.101,0 -9.252,-4.151 -9.252,-9.252l0,-42.752c-3.49,-2.05 -5.648,-5.678 -5.648,-9.525c0,-6.199 5.359,-11.243 11.944,-11.243c0.356,0 0.717,0.014 1.079,0.044c3.106,-5.444 9.034,-8.814 15.541,-8.814c6.658,0 12.639,3.477 15.689,9.091c1.043,-0.213 2.11,-0.321 3.178,-0.321c7.555,0 13.701,5.234 13.701,11.668c0,3.897 -2.265,7.498 -6.07,9.679l0,4.893l5.098,0c4.482,0 8.131,3.791 8.131,8.449l0,12.971c0,4.658 -3.648,8.449 -8.131,8.449l-5.098,0l0,7.412c0,5.101 -4.15,9.252 -9.252,9.252l-30.91,0l0,-0.001zm-5.292,-9.252c0,2.918 2.374,5.292 5.292,5.292l30.908,0c2.918,0 5.292,-2.374 5.292,-5.292l0,-40.616c-1.2,0.287 -2.434,0.432 -3.671,0.432c-0.338,0 -0.678,-0.012 -1.021,-0.034l0,2.911c0,4.56 -3.165,8.271 -7.056,8.271l-0.283,0c-3.891,0 -7.055,-3.711 -7.055,-8.271l0,-1.511c-1.141,0.221 -2.301,0.333 -3.452,0.333c-4.049,0 -7.993,-1.339 -11.134,-3.774c-1.676,0.803 -3.551,1.228 -5.446,1.228c-0.778,0 -1.574,-0.078 -2.375,-0.234l0,41.265l0.001,0zm50.55,-11.371c2.301,0 4.17,-2.014 4.17,-4.49l0,-12.971c0,-2.475 -1.869,-4.489 -4.17,-4.489l-5.098,0l0,2.137l3.201,0c1.842,0 3.284,1.434 3.284,3.264l0,11.148c0,1.83 -1.442,3.262 -3.284,3.262l-3.201,0l0,2.139l5.098,0zm-2.571,-6.098l0,-9.756l-2.526,0l0,9.756l2.526,0zm-21.613,-19.839c0,2.337 1.418,4.311 3.096,4.311l0.283,0c1.679,0 3.096,-1.974 3.096,-4.311l0,-7.648l2.404,0.527c0.871,0.189 1.739,0.286 2.576,0.286c5.373,0 9.743,-3.458 9.743,-7.708c0,-4.251 -4.37,-7.708 -9.743,-7.708c-1.241,0 -2.469,0.192 -3.648,0.573l-1.732,0.558l-0.701,-1.681c-2.083,-4.993 -7.101,-8.22 -12.785,-8.22c-5.494,0 -10.449,3.075 -12.622,7.833l-0.655,1.428l-1.539,-0.31c-0.599,-0.123 -1.206,-0.184 -1.804,-0.184c-4.404,0 -7.985,3.268 -7.985,7.286c0,4.018 3.601,7.285 8.025,7.285c1.66,0 3.254,-0.458 4.61,-1.327l1.281,-0.821l1.122,1.026c2.586,2.365 5.982,3.667 9.566,3.667c1.613,0 3.221,-0.277 4.778,-0.822l2.633,-0.921l0,6.881l0.001,0z"/>
 </g>
</svg>