
<svg width="308px" height="104px" viewBox="0 0 308 104" version="1.1" xmlns="http://www.w3.org/2000/svg" xmlns:xlink="http://www.w3.org/1999/xlink">
    <defs>
        <path d="M38.4343262,50.5908203 C38.4343262,56.767609 37.0671524,61.668683 34.3327637,65.2941895 C31.598375,68.9196959 27.9240953,70.7324219 23.3098145,70.7324219 C17.7922087,70.7324219 13.6174458,68.6816611 10.7854004,64.5800781 L10.6022949,70 L6.50073243,70 L6.50073243,13.75 L10.8586426,13.75 L10.8586426,36.1254883 C13.6418596,31.8041776 17.7677949,29.6435547 23.2365723,29.6435547 C27.9240957,29.6435547 31.6288926,31.4318669 34.3510742,35.0085449 C37.0732558,38.585223 38.4343262,43.5595385 38.4343262,49.9316406 L38.4343262,50.5908203 Z M34.0397949,49.8217773 C34.0397949,44.5971418 33.0266215,40.5627584 31.0002442,37.7185059 C28.9738668,34.8742534 26.1174501,33.4521484 22.4309082,33.4521484 C19.623277,33.4521484 17.2429297,34.1418388 15.2897949,35.5212402 C13.3366602,36.9006417 11.8596242,38.9208851 10.8586426,41.5820312 L10.8586426,59.453125 C13.0559192,64.4336187 16.9377163,66.9238281 22.5041504,66.9238281 C26.1174497,66.9238281 28.9433492,65.4956198 30.9819336,62.6391602 C33.020518,59.7827006 34.0397949,55.5102823 34.0397949,49.8217773 Z M53.0095215,70 L48.6149902,70 L48.6149902,30.3759766 L53.0095215,30.3759766 L53.0095215,70 Z M47.8459473,18.9135742 C47.8459473,18.0834919 48.1144993,17.3815947 48.6516113,16.8078613 C49.1887234,16.234128 49.9211379,15.9472656 50.848877,15.9472656 C51.776616,15.9472656 52.515134,16.234128 53.0644531,16.8078613 C53.6137723,17.3815947 53.8884277,18.0834919 53.8884277,18.9135742 C53.8884277,19.7436565 53.6137723,20.4394503 53.0644531,21.0009766 C52.515134,21.5625028 51.776616,21.8432617 50.848877,21.8432617 C49.9211379,21.8432617 49.1887234,21.5625028 48.6516113,21.0009766 C48.1144993,20.4394503 47.8459473,19.7436565 47.8459473,18.9135742 Z M80.2556152,70.7324219 C76.8864578,70.7324219 73.8408339,69.9023521 71.1186524,68.2421875 C68.3964708,66.5820229 66.278572,64.2688137 64.7648926,61.3024902 C63.2512131,58.3361668 62.4943848,55.0097841 62.4943848,51.3232422 L62.4943848,49.7485352 C62.4943848,45.9399224 63.2329028,42.5097809 64.7099609,39.4580078 C66.1870191,36.4062347 68.2438833,34.0075771 70.8806152,32.2619629 C73.5173472,30.5163487 76.3737639,29.6435547 79.4499512,29.6435547 C84.2595455,29.6435547 88.0742047,31.285384 90.894043,34.5690918 C93.7138813,37.8527996 95.1237793,42.3388387 95.1237793,48.0273438 L95.1237793,50.480957 L66.8522949,50.480957 L66.8522949,51.3232422 C66.8522949,55.8154521 68.1401238,59.5568698 70.7158203,62.5476074 C73.2915168,65.538345 76.5324512,67.0336914 80.4387207,67.0336914 C82.7824824,67.0336914 84.8515535,66.6064496 86.6459961,65.7519531 C88.4404387,64.8974567 90.070061,63.5302828 91.5349121,61.6503906 L94.2814942,63.737793 C91.0588218,68.4009022 86.3835756,70.7324219 80.2556152,70.7324219 Z M79.4499512,33.3789062 C76.1540363,33.3789062 73.3769644,34.5873903 71.1186524,37.0043945 C68.8603403,39.4213988 67.487063,42.6684366 66.9987793,46.7456055 L90.7658692,46.7456055 L90.7658692,46.2695312 C90.6437982,42.4609185 89.5573833,39.3603635 87.5065918,36.9677734 C85.4558003,34.5751833 82.7702803,33.3789062 79.4499512,33.3789062 Z M121.967041,34.1113281 C121.039302,33.9404288 120.050542,33.8549805 119.000732,33.8549805 C116.266344,33.8549805 113.953134,34.6179123 112.061035,36.1437988 C110.168936,37.6696854 108.820072,39.8852394 108.014404,42.7905273 L108.014404,70 L103.656494,70 L103.656494,30.3759766 L107.941162,30.3759766 L108.014404,36.6748047 C110.333752,31.9872813 114.056859,29.6435547 119.183838,29.6435547 C120.404547,29.6435547 121.368893,29.8022445 122.076904,30.1196289 L121.967041,34.1113281 Z" id="path-1"></path>
        <path d="M3.95507812,49.8217773 C3.95507812,43.6205745 5.32835541,38.7072935 8.07495117,35.0817871 C10.8215469,31.4562807 14.5507577,29.6435547 19.2626953,29.6435547 C24.6582301,29.6435547 28.7597516,31.7919707 31.5673828,36.0888672 L31.7871094,30.3759766 L35.8886719,30.3759766 L35.8886719,69.1943359 C35.8886719,74.2969005 34.4604635,78.3373875 31.6040039,81.315918 C28.7475443,84.2944485 24.8779541,85.7836914 19.9951172,85.7836914 C17.2363143,85.7836914 14.6057254,85.1672425 12.1032715,83.9343262 C9.60081757,82.7014099 7.62940173,81.0595806 6.18896484,79.0087891 L8.64257812,76.3720703 C11.7431796,80.1806831 15.4296661,82.0849609 19.7021484,82.0849609 C23.3642761,82.0849609 26.2206929,81.0046495 28.2714844,78.8439941 C30.3222759,76.6833388 31.384277,73.6865426 31.4575195,69.8535156 L31.4575195,64.8730469 C28.6498883,68.7793164 24.5605737,70.7324219 19.1894531,70.7324219 C14.5995864,70.7324219 10.9130999,68.9013855 8.12988281,65.2392578 C5.34666577,61.5771301 3.95507812,56.6333319 3.95507812,50.4077148 L3.95507812,49.8217773 Z M8.38623047,50.5908203 C8.38623047,55.6445565 9.39940393,59.6301124 11.4257812,62.5476074 C13.4521586,65.4651025 16.3085753,66.9238281 19.9951172,66.9238281 C25.390652,66.9238281 29.2114146,64.5068601 31.4575195,59.6728516 L31.4575195,41.2524414 C30.4321238,38.7133662 28.9550878,36.7785711 27.0263672,35.447998 C25.0976466,34.117425 22.7783339,33.4521484 20.0683594,33.4521484 C16.3818175,33.4521484 13.5131938,34.8986672 11.4624023,37.791748 C9.41161084,40.6848289 8.38623047,44.9511437 8.38623047,50.5908203 Z M52.2216797,70 L47.8271484,70 L47.8271484,30.3759766 L52.2216797,30.3759766 L52.2216797,70 Z M47.0581055,18.9135742 C47.0581055,18.0834919 47.3266575,17.3815947 47.8637695,16.8078613 C48.4008816,16.234128 49.1332961,15.9472656 50.0610352,15.9472656 C50.9887742,15.9472656 51.7272922,16.234128 52.2766113,16.8078613 C52.8259305,17.3815947 53.1005859,18.0834919 53.1005859,18.9135742 C53.1005859,19.7436565 52.8259305,20.4394503 52.2766113,21.0009766 C51.7272922,21.5625028 50.9887742,21.8432617 50.0610352,21.8432617 C49.1332961,21.8432617 48.4008816,21.5625028 47.8637695,21.0009766 C47.3266575,20.4394503 47.0581055,19.7436565 47.0581055,18.9135742 Z M70.9350586,20.2319336 L70.9350586,30.3759766 L79.1381836,30.3759766 L79.1381836,33.9648438 L70.9350586,33.9648438 L70.9350586,60.3686523 C70.9350586,62.565929 71.3317831,64.2016548 72.1252441,65.2758789 C72.9187051,66.350103 74.2431548,66.887207 76.0986328,66.887207 C76.8310583,66.887207 78.0151285,66.7651379 79.6508789,66.5209961 L79.8339844,70.1098633 C78.6865177,70.5249044 77.1240333,70.7324219 75.1464844,70.7324219 C72.1435397,70.7324219 69.9585029,69.8596279 68.5913086,68.1140137 C67.2241143,66.3683995 66.5405273,63.7988451 66.5405273,60.4052734 L66.5405273,33.9648438 L59.2529297,33.9648438 L59.2529297,30.3759766 L66.5405273,30.3759766 L66.5405273,20.2319336 L70.9350586,20.2319336 Z" id="path-2"></path>
    </defs>
    <g id="Page-1" stroke="none" stroke-width="1" fill="none" fill-rule="evenodd">
        <g id="logo" transform="translate(-6.000000, 0.000000)" fill-rule="nonzero">
            <g id="bier" transform="translate(0.000000, 11.000000)" fill="#000000">
                <g>
                    <use xlink:href="#path-1"></use>
                    <use xlink:href="#path-1"></use>
                </g>
            </g>
            <g id="git" transform="translate(234.000000, 11.000000)" fill="#000000">
                <g>
                    <use xlink:href="#path-2"></use>
                    <use xlink:href="#path-2"></use>
                </g>
            </g>
            <g id="Beer" transform="translate(182.049587, 52.000000) scale(-1, 1) translate(-182.049587, -52.000000) translate(138.000000, 0.000000)">
                <path d="M19.2218255,103.998725 C12.6412529,103.998725 7.28623292,98.7045363 7.28623292,92.1987172 L7.28623292,37.6727861 C2.78393956,35.0582147 0,30.4310609 0,25.5245944 C0,17.6183854 6.91340691,11.1852642 15.4084217,11.1852642 C15.8676815,11.1852642 16.3333915,11.2031198 16.8003916,11.2413818 C20.8073036,4.29810039 28.454752,0 36.8491425,0 C45.4383314,0 53.1541528,4.43456826 57.0888218,11.5946678 C58.4343496,11.3230075 59.8108387,11.1852642 61.1886178,11.1852642 C70.9349864,11.1852642 78.8636669,17.8607115 78.8636669,26.0666397 C78.8636669,31.0368762 75.9416914,35.6295942 71.0330306,38.4112431 L71.0330306,44.6517788 L77.6097331,44.6517788 C83.3917614,44.6517788 88.0991736,49.4868229 88.0991736,55.4276394 L88.0991736,71.970862 C88.0991736,77.9116785 83.3930515,82.7467226 77.6097331,82.7467226 L71.0330306,82.7467226 L71.0330306,92.1999926 C71.0330306,98.7058117 65.6793007,104 59.097438,104 L19.2218255,104 L19.2218255,103.998725 Z M74.2904205,67.9187423 L74.2904205,55.4759329 L71.0317406,55.4759329 L71.0317406,67.9187423 L74.2904205,67.9187423 Z" id="Combined-Shape" fill="#000000"></path>
                <path d="M12.3948523,92.1987172 C12.3948523,95.9203365 15.4574438,98.9481378 19.2218255,98.9481378 L59.0948579,98.9481378 C62.8592396,98.9481378 65.9218311,95.9203365 65.9218311,92.1987172 L65.9218311,40.3970421 C64.3737647,40.7630821 62.7818362,40.9480152 61.1860377,40.9480152 C60.749999,40.9480152 60.3113801,40.9327103 59.8688911,40.9046515 L59.8688911,44.617343 C59.8688911,50.4331702 55.7858658,55.1661823 50.7662603,55.1661823 L50.4011746,55.1661823 C45.381569,55.1661823 41.2998337,50.4331702 41.2998337,44.617343 L41.2998337,42.6902125 C39.8278805,42.9720761 38.3314162,43.114921 36.8465624,43.114921 C31.6231281,43.114921 26.5351496,41.4071594 22.4830856,38.3015587 C20.3209527,39.3257055 17.9020989,39.8677508 15.4574438,39.8677508 C14.4537808,39.8677508 13.4268966,39.7682695 12.3935623,39.569307 L12.3935623,92.1987172 L12.3948523,92.1987172 Z" id="Path" fill="#F3A83B"></path>
                <path d="M77.6071529,77.6961358 C80.5755704,77.6961358 82.986684,75.1274788 82.986684,71.9695866 L82.986684,55.426364 C82.986684,52.2697472 80.5755704,49.7010902 77.6071529,49.7010902 L71.0304505,49.7010902 L71.0304505,52.4266215 L75.1599179,52.4266215 C77.5361999,52.4266215 79.3964598,54.2555462 79.3964598,56.5895295 L79.3964598,70.8076966 C79.3964598,73.1416798 77.5361999,74.9680537 75.1599179,74.9680537 L71.0304505,74.9680537 L71.0304505,77.6961358 L77.6071529,77.6961358 Z" id="Path" fill="#F3A83B"></path>
                <path d="M46.2518055,46.2653402 C46.2518055,49.3741085 48.0811042,52 50.2458171,52 L50.6109028,52 C52.7769058,52 54.6049143,49.3741085 54.6049143,46.2653402 L54.6049143,36.0916733 L57.7062075,36.7927092 C58.8298458,37.0441243 59.9496138,37.1731575 61.0293902,37.1731575 C67.9608579,37.1731575 73.5984,32.5731914 73.5984,26.9196762 C73.5984,21.2648307 67.9608579,16.666195 61.0293902,16.666195 C59.4284315,16.666195 57.8442435,16.9216008 56.3232681,17.4284218 L54.0888922,18.1706951 L53.1845634,15.9345636 C50.4973779,9.29268086 44.0238798,5 36.691205,5 C29.6036406,5 23.2114161,9.09048455 20.4081257,15.4197611 L19.5631394,17.3193422 L17.5777441,16.9069682 C16.8050009,16.7433488 16.0219373,16.6622042 15.2504841,16.6622042 C9.56908017,16.6622042 4.94939177,21.0094249 4.94939177,26.3543247 C4.94939177,31.6992245 9.59488128,36.0451149 15.3020864,36.0451149 C17.4435784,36.0451149 19.4999266,35.4358655 21.2492417,34.2798879 L22.9018027,33.1877618 L24.3492449,34.5525869 C27.6853282,37.6986018 32.0663563,39.4305729 36.6899149,39.4305729 C38.7707743,39.4305729 40.8451834,39.0620967 42.8537997,38.3371165 L46.2505155,37.1119665 L46.2505155,46.2653402 L46.2518055,46.2653402 Z" id="Path" fill="#FFFFFF"></path>
                <path d="M52.4630527,90 C51.3719112,90 50.4837961,88.8951059 50.4837961,87.5376291 L50.4837961,59.4636151 C50.4837961,58.1048941 51.3719112,57 52.4630527,57 C53.5551944,57 54.4433095,58.1061383 54.4433095,59.4636151 L54.4433095,87.5376291 C54.4433095,88.8951059 53.5551944,90 52.4630527,90 Z" id="Shape" fill="#000000"></path>
                <path d="M38.6057559,90 C37.5136143,90 36.6254992,88.8951059 36.6254992,87.5376291 L36.6254992,59.4636151 C36.6254992,58.1048941 37.5136143,57 38.6057559,57 C39.6968973,57 40.5850125,58.1061383 40.5850125,59.4636151 L40.5850125,87.5376291 C40.5840124,88.8951059 39.6968973,90 38.6057559,90 Z" id="Shape" fill="#000000"></path>
                <path d="M23.7565805,90 C22.6664391,90 21.7773238,88.8951059 21.7773238,87.5376291 L21.7773238,59.4636151 C21.7773238,58.1048941 22.6664391,57 23.7565805,57 C24.8487221,57 25.7368372,58.1061383 25.7368372,59.4636151 L25.7368372,87.5376291 C25.7368372,88.8951059 24.8487221,90 23.7565805,90 Z" id="Shape" fill="#000000"></path>
            </g>
        </g>
    </g>
</svg>